<svg width="11" height="11" viewBox="0 0 11 11" fill="none" xmlns="http://www.w3.org/2000/svg">
<path d="M8.85938 3.79688H6.32812V1.26562C6.32812 0.92996 6.19478 0.608044 5.95743 0.370693C5.72008 0.133342 5.39816 0 5.0625 0C4.72684 0 4.40492 0.133342 4.16757 0.370693C3.93022 0.608044 3.79688 0.92996 3.79688 1.26562L3.8418 3.79688H1.26562C0.92996 3.79688 0.608044 3.93022 0.370693 4.16757C0.133342 4.40492 0 4.72684 0 5.0625C0 5.39816 0.133342 5.72008 0.370693 5.95743C0.608044 6.19478 0.92996 6.32812 1.26562 6.32812L3.8418 6.2832L3.79688 8.85938C3.79688 9.19504 3.93022 9.51696 4.16757 9.75431C4.40492 9.99166 4.72684 10.125 5.0625 10.125C5.39816 10.125 5.72008 9.99166 5.95743 9.75431C6.19478 9.51696 6.32812 9.19504 6.32812 8.85938V6.2832L8.85938 6.32812C9.19504 6.32812 9.51696 6.19478 9.75431 5.95743C9.99166 5.72008 10.125 5.39816 10.125 5.0625C10.125 4.72684 9.99166 4.40492 9.75431 4.16757C9.51696 3.93022 9.19504 3.79688 8.85938 3.79688Z" fill="#4F4A41"/>
</svg>
