<svg width="27" height="27" viewBox="0 0 27 27" fill="none" xmlns="http://www.w3.org/2000/svg">
<path d="M1.33301 5.33301C1.7099 5.33212 2.02729 5.46088 2.28418 5.71777C2.54076 5.97458 2.66779 6.29122 2.66602 6.66699V24H20C20.3776 24.0001 20.6943 24.128 20.9502 24.3838C21.2061 24.6397 21.3338 24.9563 21.333 25.333C21.3321 25.7099 21.2043 26.0273 20.9492 26.2842C20.6942 26.541 20.3776 26.6687 20 26.667H2.66602C1.93289 26.6669 1.30585 26.4054 0.78418 25.8838C0.262402 25.362 0.000888889 24.7342 0 24V6.66699C0 6.2893 0.127904 5.97285 0.383789 5.71777C0.639785 5.46267 0.956128 5.3339 1.33301 5.33301ZM24 0C24.7332 7.23239e-05 25.3612 0.261585 25.8838 0.78418C26.4064 1.30682 26.6669 1.93461 26.666 2.66699V18.667C26.6659 19.4002 26.4055 20.0282 25.8838 20.5508C25.3621 21.0734 24.7341 21.3338 24 21.333H8C7.26673 21.333 6.63894 21.0725 6.11719 20.5508C5.59549 20.0291 5.33397 19.4011 5.33301 18.667V2.66699C5.33301 1.93366 5.59453 1.30596 6.11719 0.78418C6.63985 0.262402 7.26756 0.000888889 8 0H24ZM12 13.333C11.6222 13.333 11.3059 13.4618 11.0508 13.7178C10.7957 13.9738 10.6669 14.2901 10.666 14.667C10.6652 15.0437 10.794 15.3604 11.0508 15.6172C11.3076 15.874 11.6241 16.0018 12 16H14.666C15.0438 16 15.3612 15.8722 15.6172 15.6162C15.8731 15.3603 16.0008 15.0437 16 14.667C15.9991 14.2901 15.8703 13.9738 15.6152 13.7178C15.3601 13.4618 15.0438 13.333 14.666 13.333H12ZM12 9.33301C11.6222 9.33301 11.3059 9.46177 11.0508 9.71777C10.7957 9.97377 10.6669 10.2901 10.666 10.667C10.6652 11.0437 10.794 11.3604 11.0508 11.6172C11.3076 11.874 11.6241 12.0018 12 12H20C20.3776 11.9999 20.6943 11.872 20.9502 11.6162C21.2061 11.3603 21.3338 11.0437 21.333 10.667C21.3321 10.2903 21.2041 9.97372 20.9492 9.71777C20.6942 9.46184 20.3776 9.33308 20 9.33301H12ZM12 5.33301C11.6222 5.33301 11.3059 5.46177 11.0508 5.71777C10.7957 5.97377 10.6669 6.29011 10.666 6.66699C10.6652 7.04374 10.794 7.36037 11.0508 7.61719C11.3076 7.87398 11.6241 8.00178 12 8H20C20.3776 7.99993 20.6943 7.87202 20.9502 7.61621C21.2061 7.36028 21.3338 7.04374 21.333 6.66699C21.3321 6.29026 21.2041 5.97372 20.9492 5.71777C20.6942 5.46184 20.3776 5.33308 20 5.33301H12Z" fill="#4F4A41"/>
</svg>
