<svg width="22" height="27" viewBox="0 0 22 27" fill="none" xmlns="http://www.w3.org/2000/svg">
<path fill-rule="evenodd" clip-rule="evenodd" d="M5.08301 22.7305L1.33203 26.5195L0.00976562 25.1738L2.42871 22.7305L0 20.2773L1.33203 18.9424L5.08301 22.7305ZM21.9648 23.6777H8.83496V21.7832H21.9648V23.6777ZM5.08301 13.2598L1.33203 17.0479L0.00976562 15.7031L2.42871 13.2598L0 10.8066L1.33203 9.47168L5.08301 13.2598ZM21.9648 14.207H8.83496V12.3125H21.9648V14.207ZM5.08301 3.78809L1.33203 7.57715L0.00976562 6.23242L2.42871 3.78809L0 1.33594L1.33203 0L5.08301 3.78809ZM21.9648 4.73535H8.83496V2.8418H21.9648V4.73535Z" fill="#4F4A41"/>
</svg>
