<svg width="24" height="24" viewBox="0 0 24 24" fill="none" xmlns="http://www.w3.org/2000/svg">
<path d="M10.667 24H2.66699C1.9338 24 1.3059 23.7393 0.78418 23.2178C0.262402 22.696 0.000888889 22.0672 0 21.333V2.66699C0 1.93366 0.261513 1.30596 0.78418 0.78418C1.30685 0.262402 1.93455 0.000888889 2.66699 0H10.667V24ZM24 21.333C24 22.0663 23.7396 22.6951 23.2178 23.2178C22.696 23.7404 22.0672 24.0009 21.333 24H13.333V12H24V21.333ZM21.333 0C22.0663 0 22.6951 0.261513 23.2178 0.78418C23.7402 1.30678 24.0009 1.93469 24 2.66699V9.33301H13.333V0H21.333Z" fill="#4F4A41"/>
</svg>
