<svg width="26" height="27" viewBox="0 0 26 27" fill="none" xmlns="http://www.w3.org/2000/svg">
<path d="M14.5215 18.3857C15.3488 18.3857 16.1532 18.6822 16.8096 19.2285C17.466 19.7748 17.938 20.5413 18.1523 21.4082H24.6953C24.9504 21.4083 25.1946 21.5182 25.375 21.7139C25.5553 21.9095 25.6571 22.1745 25.6572 22.4512C25.6572 22.728 25.5554 22.9937 25.375 23.1895C25.1946 23.3851 24.9504 23.495 24.6953 23.4951H18.1523C17.938 24.3621 17.466 25.1285 16.8096 25.6748C16.1532 26.2211 15.3488 26.5176 14.5215 26.5176C13.6943 26.5175 12.8897 26.2211 12.2334 25.6748C11.5771 25.1285 11.1059 24.3619 10.8916 23.4951H0.961914C0.706734 23.4951 0.461689 23.3852 0.28125 23.1895C0.100955 22.9937 0 22.7279 0 22.4512C0.000107155 22.1746 0.101081 21.9095 0.28125 21.7139C0.461689 21.5181 0.706734 21.4082 0.961914 21.4082H10.8916C11.1059 20.5414 11.5772 19.7748 12.2334 19.2285C12.8897 18.6823 13.6943 18.3858 14.5215 18.3857ZM6.05469 9.18652C6.88197 9.18652 7.68638 9.48202 8.34277 10.0283C8.99918 10.5746 9.47125 11.3411 9.68555 12.208H24.6953C24.9503 12.2081 25.1946 12.318 25.375 12.5137C25.5554 12.7094 25.6572 12.9751 25.6572 13.252C25.6589 13.3894 25.6356 13.526 25.5879 13.6533C25.5401 13.7808 25.4686 13.8968 25.3789 13.9941C25.2893 14.0913 25.1828 14.168 25.0654 14.2197C24.948 14.2715 24.822 14.2977 24.6953 14.2959H9.68555C9.47123 15.1626 8.99903 15.9284 8.34277 16.4746C7.68637 17.0209 6.882 17.3174 6.05469 17.3174C5.22742 17.3174 4.42297 17.0209 3.7666 16.4746C3.1104 15.9283 2.63812 15.1626 2.42383 14.2959H0.961914C0.706801 14.2959 0.461676 14.1859 0.28125 13.9902C0.100878 13.7945 7.54046e-05 13.5287 0 13.252C0 12.9752 0.100914 12.7094 0.28125 12.5137C0.461689 12.3179 0.706734 12.208 0.961914 12.208H2.42383C2.63811 11.3411 3.11025 10.5746 3.7666 10.0283C4.42297 9.48202 5.22742 9.18655 6.05469 9.18652ZM17.9219 0C18.749 0.000114417 19.5527 0.296565 20.209 0.842773C20.8653 1.38905 21.3374 2.15466 21.5518 3.02148H24.6953C24.822 3.01966 24.948 3.04591 25.0654 3.09766C25.1828 3.14942 25.2893 3.22609 25.3789 3.32324C25.4686 3.42055 25.5401 3.53657 25.5879 3.66406C25.6355 3.79142 25.6589 3.92799 25.6572 4.06543C25.6572 4.34228 25.5554 4.60795 25.375 4.80371C25.1947 4.99929 24.9503 5.10928 24.6953 5.10938H21.5518C21.3375 5.97631 20.8654 6.74273 20.209 7.28906C19.5528 7.8351 18.7489 8.13074 17.9219 8.13086C17.0947 8.13086 16.2901 7.83521 15.6338 7.28906C14.9774 6.74273 14.5053 5.97631 14.291 5.10938H0.961914C0.835646 5.10938 0.710417 5.08266 0.59375 5.03027C0.477016 4.97781 0.370594 4.90064 0.28125 4.80371C0.19195 4.7068 0.121578 4.59145 0.0732422 4.46484C0.0249076 4.33822 0 4.20249 0 4.06543C2.01803e-05 3.9284 0.0249089 3.79261 0.0732422 3.66602C0.121593 3.53945 0.191957 3.42402 0.28125 3.32715C0.370578 3.23025 0.477049 3.15401 0.59375 3.10156C0.710484 3.0491 0.835562 3.02148 0.961914 3.02148H14.291C14.5053 2.15466 14.9775 1.38905 15.6338 0.842773C16.2902 0.296455 17.0946 0 17.9219 0Z" fill="#66615C"/>
</svg>
