<svg width="20" height="20" viewBox="0 0 20 20" fill="none" xmlns="http://www.w3.org/2000/svg">
<path fill-rule="evenodd" clip-rule="evenodd" d="M11.8729 0.063279C12.0655 -0.00764556 12.2761 -0.019269 12.4754 0.0300759C13.47 0.277245 14.4219 0.671988 15.2996 1.20097C15.4755 1.30712 15.6159 1.46365 15.702 1.65019C15.7878 1.83656 15.8154 2.04439 15.782 2.24687C15.666 2.95449 15.842 3.49625 16.1727 3.82695C16.5033 4.15754 17.0454 4.33346 17.7518 4.21758C17.9544 4.18414 18.1629 4.21168 18.3494 4.29765C18.536 4.3837 18.6925 4.52409 18.7986 4.7C19.3276 5.57773 19.7224 6.52966 19.9695 7.52422C20.0191 7.72379 20.0074 7.93378 19.9363 8.12676C19.8653 8.31958 19.7381 8.48651 19.5711 8.60625C18.989 9.02411 18.7295 9.53063 18.7293 9.99883C18.7293 10.4671 18.9888 10.9754 19.5711 11.3934C19.738 11.5131 19.8653 11.6801 19.9363 11.8728C20.0073 12.0656 20.0189 12.2751 19.9695 12.4744C19.7224 13.469 19.3276 14.4209 18.7986 15.2986C18.6925 15.4745 18.536 15.6149 18.3494 15.701C18.1629 15.7869 17.9544 15.8145 17.7518 15.7811C17.0444 15.6652 16.5033 15.8421 16.1727 16.1717C15.842 16.5023 15.6661 17.0444 15.782 17.7508C15.8157 17.9536 15.788 18.1626 15.702 18.3494C15.6159 18.5361 15.4756 18.6924 15.2996 18.7986C14.4219 19.3276 13.47 19.7224 12.4754 19.9695C12.2758 20.0191 12.0659 20.0074 11.8729 19.9363C11.68 19.8653 11.5131 19.7381 11.3934 19.5711C10.9754 18.9877 10.4681 18.7293 9.99981 18.7293C9.5316 18.7295 9.02412 18.9879 8.60625 19.5711C8.48654 19.738 8.3195 19.8653 8.12676 19.9363C7.93404 20.0073 7.72455 20.0189 7.5252 19.9695C6.53064 19.7224 5.57871 19.3276 4.70098 18.7986C4.52496 18.6925 4.3847 18.5361 4.29863 18.3494C4.21257 18.1626 4.18489 17.9536 4.21856 17.7508C4.33443 17.0445 4.15751 16.5033 3.82793 16.1727C3.4962 15.842 2.95445 15.6649 2.24785 15.782C2.04509 15.8156 1.83687 15.788 1.6502 15.702C1.46349 15.6159 1.30717 15.4756 1.20098 15.2996C0.67181 14.4212 0.277056 13.4687 0.0300798 12.4734C-0.0192694 12.2741 -0.00765792 12.0646 0.0632829 11.8719C0.134303 11.6791 0.261602 11.5121 0.428517 11.3924C1.01187 10.9754 1.27031 10.4671 1.27031 9.99883C1.27015 9.53165 1.01168 9.02308 0.428517 8.60625C0.261585 8.48653 0.134308 8.31951 0.0632829 8.12676C-0.00767929 7.93403 -0.0192749 7.72455 0.0300798 7.52519C0.277152 6.53027 0.671892 5.57806 1.20098 4.7C1.30717 4.52396 1.46349 4.38372 1.6502 4.29765C1.83687 4.21164 2.04509 4.18399 2.24785 4.21758C2.95445 4.33363 3.49625 4.15765 3.82695 3.82695C4.15763 3.49625 4.33368 2.95344 4.2166 2.24687C4.1833 2.04441 4.21177 1.83654 4.29766 1.65019C4.38371 1.46363 4.5241 1.30712 4.7 1.20097C5.57805 0.671908 6.53029 0.27714 7.5252 0.0300759C7.72455 -0.0192651 7.93404 -0.00768998 8.12676 0.063279C8.31951 0.134302 8.48654 0.261588 8.60625 0.428513C9.02412 1.01066 9.5316 1.27015 9.99981 1.27031C10.4681 1.27031 10.9764 1.01084 11.3934 0.428513C11.5131 0.26163 11.6801 0.13429 11.8729 0.063279ZM9.99981 4.86406C8.63805 4.86417 7.33187 5.40505 6.36895 6.36797C5.40603 7.33088 4.86516 8.63707 4.86504 9.99883C4.86504 11.3607 5.40593 12.6676 6.36895 13.6307C7.33186 14.5936 8.63807 15.1345 9.99981 15.1346C11.3617 15.1346 12.6686 14.5937 13.6316 13.6307C14.5947 12.6676 15.1355 11.3607 15.1355 9.99883C15.1354 8.6371 14.5945 7.33088 13.6316 6.36797C12.6686 5.40495 11.3617 4.86406 9.99981 4.86406ZM9.99981 6.91777C10.817 6.91777 11.6007 7.24328 12.1785 7.82109C12.7562 8.39879 13.0807 9.18186 13.0809 9.99883C13.0809 10.816 12.7563 11.5997 12.1785 12.1775C11.6007 12.7554 10.817 13.0799 9.99981 13.0799C9.18283 13.0798 8.39978 12.7552 7.82207 12.1775C7.24426 11.5997 6.91875 10.816 6.91875 9.99883C6.91887 9.18184 7.24437 8.3988 7.82207 7.82109C8.39978 7.24339 9.18282 6.91788 9.99981 6.91777Z" fill="#4F4A41"/>
</svg>
