<svg width="25" height="22" viewBox="0 0 25 22" fill="none" xmlns="http://www.w3.org/2000/svg">
<path fill-rule="evenodd" clip-rule="evenodd" d="M8.96289 0C9.95708 0.000225931 10.9103 0.420843 11.6133 1.16895L18.75 8.7627C19.5489 9.61308 19.998 10.7663 19.998 11.9688C19.998 13.1712 19.5489 14.3244 18.75 15.1748L14.2607 19.9521C13.4616 20.8024 12.3772 21.2803 11.2471 21.2803C10.1172 21.2801 9.03346 20.8022 8.23438 19.9521L1.09863 12.3584C0.395519 11.6104 0.000279029 10.596 0 9.53809V3.98926C9.24453e-05 2.93143 0.394788 1.91702 1.09766 1.16895C1.80078 0.420752 2.75466 0 3.74902 0H8.96289ZM16.2471 0C16.5783 0.000136822 16.8956 0.140466 17.1299 0.389648L22.8701 6.49609C24.2339 7.94755 25 9.91626 25 11.9688C24.9999 14.0211 24.2338 15.989 22.8701 17.4404L20.8809 19.5576C20.6452 19.7998 20.3295 19.9346 20.002 19.9316C19.6743 19.9286 19.3606 19.7885 19.1289 19.542C18.8972 19.2955 18.7656 18.9619 18.7627 18.6133C18.7598 18.2647 18.8857 17.9285 19.1133 17.6777L21.1035 15.5605C21.9986 14.6079 22.5009 13.3158 22.501 11.9688C22.501 10.6217 21.9985 9.3296 21.1035 8.37695L15.3643 2.26953C15.1302 2.02027 14.9982 1.68247 14.998 1.33008C14.998 0.977446 15.129 0.639035 15.3633 0.389648C15.5976 0.140343 15.9157 0 16.2471 0ZM6.23633 5.31934C5.90492 5.3211 5.58769 5.46329 5.35449 5.71387C5.12129 5.96451 4.99053 6.30355 4.99219 6.65625C4.99391 7.00886 5.12779 7.34663 5.36328 7.59473C5.59869 7.84256 5.9169 7.98113 6.24805 7.97949C6.57939 7.97949 6.89748 7.83908 7.13184 7.58984C7.3662 7.34046 7.49803 7.00209 7.49805 6.64941C7.49805 6.29671 7.36621 5.95838 7.13184 5.70898C6.89748 5.4597 6.57942 5.31934 6.24805 5.31934H6.23633Z" fill="#4F4A41"/>
</svg>
